HIERARCHY
ROOT Hips
{
	OFFSET 0.00000 0.00000 0.00000
	CHANNELS 6 Xposition Yposition Zposition Zrotation Yrotation Xrotation 
	JOINT LHipJoint
	{
		OFFSET 0 0 0
		CHANNELS 3 Zrotation Yrotation Xrotation
		JOINT LeftUpLeg
		{
			OFFSET 1.28366 -1.58472 0.87544
			CHANNELS 3 Zrotation Yrotation Xrotation
			JOINT LeftLeg
			{
				OFFSET 2.18587 -6.00562 0.00000
				CHANNELS 3 Zrotation Yrotation Xrotation
				JOINT LeftFoot
				{
					OFFSET 2.39085 -6.56880 0.00000
					CHANNELS 3 Zrotation Yrotation Xrotation
					JOINT LeftToeBase
					{
						OFFSET 0.12003 -0.32979 2.03101
						CHANNELS 3 Zrotation Yrotation Xrotation
						End Site
						{
							OFFSET 0.00000 -0.00000 1.04074
						}
					}
				}
			}
		}
	}
	JOINT RHipJoint
	{
		OFFSET 0 0 0
		CHANNELS 3 Zrotation Yrotation Xrotation
		JOINT RightUpLeg
		{
			OFFSET -1.21795 -1.58472 0.87544
			CHANNELS 3 Zrotation Yrotation Xrotation
			JOINT RightLeg
			{
				OFFSET -2.22714 -6.11902 0.00000
				CHANNELS 3 Zrotation Yrotation Xrotation
				JOINT RightFoot
				{
					OFFSET -2.40306 -6.60235 0.00000
					CHANNELS 3 Zrotation Yrotation Xrotation
					JOINT RightToeBase
					{
						OFFSET -0.15519 -0.42640 1.91430
						CHANNELS 3 Zrotation Yrotation Xrotation
						End Site
						{
							OFFSET -0.00000 -0.00000 0.99082
						}
					}
				}
			}
		}
	}
	JOINT LowerBack
	{
		OFFSET 0 0 0
		CHANNELS 3 Zrotation Yrotation Xrotation
		JOINT Spine
		{
			OFFSET 0.01180 1.76430 -0.06387
			CHANNELS 3 Zrotation Yrotation Xrotation
			JOINT Spine1
			{
				OFFSET -0.00388 1.74651 0.09536
				CHANNELS 3 Zrotation Yrotation Xrotation
				JOINT Neck
				{
					OFFSET 0 0 0
					CHANNELS 3 Zrotation Yrotation Xrotation
					JOINT Neck1
					{
						OFFSET 0.04111 1.46174 0.14397
						CHANNELS 3 Zrotation Yrotation Xrotation
						JOINT Head
						{
							OFFSET 0.00502 1.44580 -0.31711
							CHANNELS 3 Zrotation Yrotation Xrotation
							End Site
							{
								OFFSET -0.00395 1.49251 -0.12327
							}
						}
					}
				}
				JOINT LeftShoulder
				{
					OFFSET 0 0 0
					CHANNELS 3 Zrotation Yrotation Xrotation
					JOINT LeftArm
					{
						OFFSET 2.70917 1.34870 -0.15417
						CHANNELS 3 Zrotation Yrotation Xrotation
						JOINT LeftForeArm
						{
							OFFSET 4.46610 -0.00000 -0.00000
							CHANNELS 3 Zrotation Yrotation Xrotation
							JOINT LeftHand
							{
								OFFSET 3.41414 -0.00000 0.00000
								CHANNELS 3 Zrotation Yrotation Xrotation
								JOINT LeftFingerBase
								{
									OFFSET 0 0 0
									CHANNELS 3 Zrotation Yrotation Xrotation
									JOINT LeftHandIndex1
									{
										OFFSET 0.32830 -0.00000 0.00000
										CHANNELS 3 Zrotation Yrotation Xrotation
										End Site
										{
											OFFSET 0.26468 -0.00000 0.00000
										}
									}
								}
								JOINT LThumb
								{
									OFFSET 0 0 0
									CHANNELS 3 Zrotation Yrotation Xrotation
									End Site
									{
										OFFSET 0.26872 -0.00000 0.26872
									}
								}
							}
						}
					}
				}
				JOINT RightShoulder
				{
					OFFSET 0 0 0
					CHANNELS 3 Zrotation Yrotation Xrotation
					JOINT RightArm
					{
						OFFSET -3.06316 1.13725 -0.10883
						CHANNELS 3 Zrotation Yrotation Xrotation
						JOINT RightForeArm
						{
							OFFSET -4.40431 -0.00000 0.00000
							CHANNELS 3 Zrotation Yrotation Xrotation
							JOINT RightHand
							{
								OFFSET -3.04688 -0.00000 0.00000
								CHANNELS 3 Zrotation Yrotation Xrotation
								JOINT RightFingerBase
								{
									OFFSET 0 0 0
									CHANNELS 3 Zrotation Yrotation Xrotation
									JOINT RightHandIndex1
									{
										OFFSET -0.50049 -0.00000 0.00000
										CHANNELS 3 Zrotation Yrotation Xrotation
										End Site
										{
											OFFSET -0.40351 -0.00000 0.00000
										}
									}
								}
								JOINT RThumb
								{
									OFFSET 0 0 0
									CHANNELS 3 Zrotation Yrotation Xrotation
									End Site
									{
										OFFSET -0.40967 -0.00000 0.40967
									}
								}
							}
						}
					}
				}
			}
		}
	}
}
MOTION
Frames: 16
Frame Time: 0.00609756
0.00 0.00 0.00 0 0 0 0 0 0 -21 0 0 0 0 0 0 0 0 0 0 0 0 0 0 21 0 0 0 0 0 0 0 0 0 0 0 0 0 0 0 0 0 0 0 0 0 0 -16 0 0 21 0 0 11 0 0 0 -8 0 0 0 0 0 0 0 0 0 0 0 0 0 0 0 0 0 0 0 0 8 0 0 0 0 0 0 0 0 0 0 0 0 0 0 0 0 0
0.00 0.00 0.00 -176.3250 -0.0750 -175.8490 0.0000 0.0000 0.0000 -9.7423 2.7150 -29.0181 9.0778 16.8575 56.3587 2.2587 -6.3950 -27.1512 0.0630 -1.6190 -4.4537 0.0000 0.0000 0.0000 17.4000 -21.7324 -41.2037 -9.7332 -17.2571 58.5930 -1.5168 1.2943 -22.9123 -0.4771 -4.4297 12.2890 2.2348 3.9816 4.3309 1.0604 5.8906 -5.6046 -0.8088 2.9020 -8.2087 8.3514 10.1160 -18.2027 5.6898 9.5605 23.5255 2.0629 5.6150 10.7752 -0.0000 0.0000 0.0000 -6.4063 -1.7645 26.3894 22.4456 -33.4769 -6.8300 -0.0000 0.0000 -16.0136 -6.0095 8.8796 -0.9309 -7.1250 0.0000 -0.0000 -27.5096 37.3934 5.6842 -0.0000 0.0000 0.0000 14.6101 -9.1220 33.4763 -43.2202 49.8662 -20.8689 0.0000 -0.0000 -33.8030 1.8452 2.1864 0.0704 7.1250 -0.0000 -0.0000 21.4904 -27.5110 9.7865
0.00 0.00 0.00 -178.8320 3.2113 -174.5620 0.0000 0.0000 0.0000 -15.9403 2.5909 -29.0733 8.1751 16.2465 53.1908 2.2044 -1.9224 -27.5791 0.0560 -1.5274 -4.2014 0.0000 0.0000 0.0000 13.0303 -20.0868 -43.7849 -11.6117 -18.2216 64.7526 -1.3619 0.9668 -21.7761 -0.1321 -2.3429 6.4544 2.0945 5.5617 4.3250 -0.9695 7.8604 -5.9975 -3.0709 3.7988 -8.3134 9.3030 12.5837 -15.9767 5.8485 13.1706 20.9475 2.2484 7.3641 9.5199 -0.0000 -0.0000 0.0000 -6.7567 -1.9412 17.4981 23.2664 -34.3789 -7.2882 -0.0000 0.0000 -19.0468 -15.4931 11.3286 -3.1167 -7.1250 0.0000 -0.0000 -35.6071 38.6420 6.6108 -0.0000 -0.0000 0.0000 15.5125 -10.0947 40.4811 -78.0794 59.4562 -49.6953 0.0000 -0.0000 -43.2353 18.5775 2.6691 0.8967 7.1250 -0.0000 -0.0000 32.6313 -26.1729 17.8031
0.00 0.00 0.00 -180.1000 4.9882 -174.6110 0.0000 0.0000 0.0000 -18.4812 5.1828 -29.3891 7.7716 15.9487 51.7358 2.1547 -3.4284 -26.9190 0.0108 -0.6717 -1.8460 0.0000 0.0000 0.0000 12.8428 -20.8219 -44.4142 -15.9192 -19.5960 77.9909 -1.5699 0.9369 -23.4208 -0.0444 -1.3600 3.7401 2.1912 6.4340 4.8381 -2.3308 8.9812 -6.2144 -4.7360 4.2923 -8.5508 9.3671 13.3153 -15.4500 5.6998 14.2731 21.1460 2.3166 7.8647 9.5215 0.0000 0.0000 0.0000 -5.7902 -2.9868 13.9568 21.1697 -32.0259 -6.1397 -0.0000 0.0000 -16.5034 -20.4603 12.1228 -4.4801 -7.1250 0.0000 -0.0000 -39.4709 38.7450 7.5477 0.0000 0.0000 0.0000 15.4570 -8.3137 46.1665 -101.0935 59.5298 -69.5920 0.0000 -0.0000 -46.1406 26.0295 2.6861 1.3111 7.1250 -0.0000 -0.0000 36.8366 -25.2436 22.4805
0.00 0.00 0.00 -181.6040 6.2260 -174.1330 0.0000 0.0000 0.0000 -21.0363 7.5683 -30.0077 7.2159 15.5111 49.6864 1.9958 -5.0593 -25.5995 0.0053 -0.4681 -1.2861 0.0000 0.0000 0.0000 15.5243 -23.4222 -42.9701 -20.8837 -19.9813 92.5846 -1.2706 2.1646 -20.7063 -0.0030 -0.3526 0.9687 1.4631 7.0856 4.7407 -3.8595 9.8112 -6.7764 -6.0803 4.7245 -8.8928 8.9958 13.6966 -15.9857 6.1674 14.6372 22.5453 2.6898 8.0544 10.0512 0.0000 -0.0000 0.0000 -4.3518 -4.1139 9.8358 17.3822 -27.3588 -4.2615 -0.0000 0.0000 -8.9405 -17.5464 11.0446 -3.4664 -7.1250 0.0000 -0.0000 -36.9466 38.1787 7.4865 0.0000 -0.0000 0.0000 15.2199 -4.3928 52.4687 -121.6095 55.8656 -86.9947 0.0000 -0.0000 -47.1051 27.7176 4.0755 2.1385 7.1250 -0.0000 -0.0000 37.2340 -23.7194 24.7128
0.00 0.00 0.00 -182.9780 7.3170 -170.5020 0.0000 0.0000 0.0000 -22.9423 8.3361 -35.0905 7.3807 15.6442 50.2998 1.9086 -5.5277 -24.9521 0.1604 -2.5802 -7.1120 0.0000 0.0000 0.0000 35.8682 -27.3216 -33.5114 -19.5312 -19.9947 88.6293 -0.0727 3.8954 -5.1488 -0.4594 -4.3480 12.0579 0.1004 7.6093 2.6693 -6.9105 10.7152 -8.3726 -8.5404 5.3480 -9.0242 7.0189 12.4675 -18.0729 7.4335 12.9789 21.8859 3.2519 7.2917 9.9255 -0.0000 0.0000 0.0000 2.6947 -1.9423 7.2193 11.5836 -19.1772 -1.9634 -0.0000 0.0000 -2.3450 -0.2618 8.3941 -0.0382 -7.1250 0.0000 -0.0000 -22.8245 37.3951 4.5644 -0.0000 0.0000 0.0000 14.8853 7.2861 62.4410 -140.8771 47.5416 -102.2106 0.0000 -0.0000 -46.4419 5.8116 13.7525 1.3861 7.1250 -0.0000 -0.0000 22.3377 -16.7059 16.2703
0.00 0.00 0.00 -183.6920 8.0366 -168.9420 0.0000 0.0000 0.0000 -23.0676 8.4225 -38.7275 8.2765 16.3189 53.5525 2.0116 -6.9978 -25.5133 0.1653 -2.6190 -7.2197 0.0000 0.0000 0.0000 42.1173 -26.0704 -29.7025 -13.2459 -18.8691 69.8874 -0.0667 -2.4610 -6.4258 -0.5950 -4.9380 13.7319 -0.5968 7.6922 2.0296 -7.7871 10.9119 -8.7634 -9.0737 5.5366 -9.0185 4.7123 9.8301 -20.3632 8.5032 9.5151 22.0381 3.6199 5.6573 10.2372 -0.0000 -0.0000 0.0000 3.8044 -1.6856 7.6698 11.8695 -19.6086 -2.0583 -0.0000 0.0000 -4.0332 2.2800 6.9624 0.2765 -7.1250 0.0000 -0.0000 -20.3936 36.2382 4.6349 -0.0000 -0.0000 0.0000 17.1359 10.3822 63.0748 -139.4470 48.3941 -101.1483 0.0000 -0.0000 -45.7173 -1.2810 15.4312 -0.3409 7.1250 -0.0000 -0.0000 17.6081 -15.0066 13.0917
0.00 0.00 0.00 -185.9960 12.6611 -172.9640 0.0000 0.0000 0.0000 -21.7279 12.1425 -39.6497 10.2311 17.5378 60.2581 2.0909 -6.4530 -26.0733 0.3609 -3.8590 -10.6803 0.0000 0.0000 0.0000 19.4050 -18.9800 -40.8783 -26.0780 -19.0902 108.0340 -0.3630 2.4216 -10.8014 -0.4521 -4.3135 11.9605 -1.8563 6.3906 6.4585 -5.3706 8.4316 -6.2145 -5.9724 4.2008 -9.6799 -4.9701 -4.1772 -18.5803 11.6286 -7.5988 18.3996 3.7693 -2.8735 9.5551 -0.0000 -0.0000 0.0000 -0.7905 1.6711 21.7716 35.6398 -45.2636 -15.2661 -0.0000 0.0000 -17.5673 -0.6350 -0.1974 0.0022 -7.1250 0.0000 -0.0000 -20.9974 29.4009 8.5131 -0.0000 -0.0000 0.0000 21.8488 9.9803 53.3239 -139.5738 48.3204 -101.2431 0.0000 -0.0000 -57.5998 -0.3506 11.4055 -0.0693 7.1250 -0.0000 -0.0000 18.5945 -18.8570 12.2461
0.00 0.00 0.00 -185.0080 12.1017 -175.4310 0.0000 0.0000 0.0000 -18.0413 14.9093 -35.8583 9.3549 17.0308 57.3096 1.6648 -7.2918 -23.1225 0.4090 -4.1057 -11.3743 0.0000 0.0000 0.0000 -1.9580 -22.4950 -47.1046 -29.9822 -17.4199 120.4521 -0.2253 7.6519 -9.3367 -0.7292 -5.4558 15.2134 -1.5967 4.6172 7.8601 -2.7979 5.9593 -5.0096 -3.0572 2.9590 -9.6023 -8.3218 -8.6473 -14.7192 12.5643 -13.2836 16.3489 3.8502 -5.9014 8.9741 0.0000 -0.0000 0.0000 -1.2139 -0.2011 29.6319 74.2181 -59.0377 -46.3766 -0.0000 0.0000 -25.2691 -5.1981 -0.4673 0.0425 -7.1250 0.0000 -0.0000 -24.2663 28.9832 10.3380 0.0000 -0.0000 0.0000 19.7347 7.4395 46.8901 -140.1456 47.9834 -101.6690 0.0000 -0.0000 -58.6089 1.6110 10.8842 0.3043 7.1250 -0.0000 -0.0000 19.9687 -19.3723 13.0237
0.00 0.00 0.00 -183.9020 11.4214 -176.2560 0.0000 0.0000 0.0000 -15.3968 15.6784 -32.5750 8.0928 16.1871 52.8961 1.2642 -7.4867 -20.0950 0.3970 -4.0453 -11.2042 0.0000 0.0000 0.0000 -6.2974 -19.7665 -48.0300 -28.4518 -18.1931 115.4506 -0.0763 5.8098 -5.9766 -0.8719 -5.9533 16.6489 -1.1998 3.3944 8.4555 -1.5337 4.3777 -4.5991 -1.6979 2.1787 -9.6162 -8.8308 -10.6494 -13.4083 12.5117 -14.7526 15.5532 3.8053 -6.1942 8.6830 0.0000 -0.0000 0.0000 -1.1430 -2.0584 32.8117 95.7300 -59.8756 -64.9603 -0.0000 0.0000 -26.9179 -6.0976 0.2421 -0.0259 -7.1250 0.0000 -0.0000 -25.0789 29.5914 10.3469 0.0000 -0.0000 0.0000 17.7448 7.6092 44.7533 -138.1442 49.1317 -100.1686 0.0000 -0.0000 -58.1149 3.1261 10.9823 0.5961 7.1250 -0.0000 -0.0000 20.9631 -19.2872 13.8118
0.00 0.00 0.00 -182.6890 11.1067 -176.3850 0.0000 0.0000 0.0000 -12.3760 15.9028 -26.8744 5.5589 13.9868 43.1846 0.6031 -6.4626 -13.8936 0.1093 -2.1320 -5.8706 0.0000 0.0000 0.0000 -7.1315 -13.1216 -46.6301 -23.7203 -19.6649 100.9360 0.0006 -0.4221 -0.0975 -0.7692 -5.6003 15.6291 -1.0739 2.0614 8.6427 -0.2781 2.6730 -4.3814 -0.1465 1.3777 -9.5613 -9.4818 -11.8811 -12.1970 13.0678 -16.3786 13.8327 3.8924 -7.0815 8.1879 -0.0000 -0.0000 0.0000 -0.7981 -4.6484 36.5209 117.9583 -56.8299 -83.9549 -0.0000 0.0000 -27.0278 -6.8353 0.3546 -0.0425 -7.1250 0.0000 -0.0000 -25.6346 29.6584 10.5785 -0.0000 -0.0000 0.0000 15.4624 7.5312 43.0491 -133.3677 51.5436 -96.4898 0.0000 -0.0000 -54.5554 4.6376 11.8437 0.9538 7.1250 -0.0000 -0.0000 21.8386 -18.4836 14.9103
0.00 0.00 0.00 -182.1970 10.6670 -175.3220 0.0000 0.0000 0.0000 -10.3581 14.7475 -20.6916 2.9186 10.5621 30.8169 0.0888 -0.2781 -5.5355 0.2801 -3.4042 -9.4061 0.0000 0.0000 0.0000 -6.2474 -6.9857 -42.2159 -16.5435 -19.7111 79.8469 -0.0189 -7.1013 5.4096 -0.4319 -4.2172 11.6886 -1.5547 0.7473 7.6852 0.3672 0.9351 -4.6047 1.1131 0.5994 -9.2395 -9.6192 -12.8764 -11.4737 13.5777 -17.7192 12.2038 3.9176 -7.7861 7.7493 -0.0000 -0.0000 0.0000 0.1479 -6.2275 40.3585 131.8905 -52.2040 -95.3277 -0.0000 0.0000 -26.3694 -6.7579 -0.5665 0.0671 -7.1250 0.0000 -0.0000 -25.3558 28.8247 11.0052 -0.0000 -0.0000 0.0000 13.6301 6.8531 42.4054 -125.3210 54.7167 -90.0462 0.0000 -0.0000 -46.8031 3.7403 13.6651 0.8848 7.1250 -0.0000 -0.0000 21.0271 -16.7808 15.1234
0.00 0.00 0.00 -181.7740 9.6062 -173.6030 0.0000 0.0000 0.0000 -8.7440 13.7333 -18.4253 1.7247 8.2675 23.5294 -0.1049 7.2267 2.0529 0.1348 -2.3669 -6.5207 0.0000 0.0000 0.0000 -4.7348 -2.9500 -36.9798 -10.4869 -17.6747 61.1036 -0.1097 -10.4364 8.9565 -0.0919 -1.9546 5.3803 -1.6685 -0.3871 5.8906 0.7114 -0.5032 -4.9970 1.7469 -0.0661 -8.5551 -10.1204 -13.6491 -11.3139 14.1255 -18.7433 11.4494 4.0161 -8.2905 7.7070 -0.0000 -0.0000 0.0000 1.6504 -6.4597 43.3722 137.9699 -49.2277 -100.0367 -0.0000 0.0000 -24.3961 -5.9565 -1.8065 0.1884 -7.1250 0.0000 -0.0000 -24.5042 27.7273 11.2735 -0.0000 -0.0000 0.0000 11.9801 5.9574 41.9135 -115.4194 57.4119 -81.8226 0.0000 -0.0000 -38.6165 1.9851 15.7028 0.5375 7.1250 -0.0000 -0.0000 19.6858 -14.8417 14.9086
0.00 0.00 0.00 -180.6970 7.3727 -171.3420 0.0000 0.0000 0.0000 -7.8750 17.9324 -26.2276 2.7733 10.3187 30.0149 -0.9506 18.8193 1.7711 0.2902 3.4644 9.5746 0.0000 0.0000 0.0000 -1.9869 2.5062 -29.7194 -5.1967 -13.6020 41.6658 -0.0286 -16.2783 11.7279 -0.0039 -0.4038 1.1094 -1.1853 -1.6992 3.4447 1.0286 -2.1011 -5.4565 1.9384 -0.8474 -7.5528 -10.6362 -14.5384 -11.4206 14.7669 -19.9635 11.0642 4.0841 -8.8424 7.8803 -0.0000 0.0000 0.0000 4.5010 -6.5108 46.5255 140.8365 -47.5664 -102.1806 -0.0000 0.0000 -22.6444 -3.1177 -4.4941 0.2445 -7.1250 0.0000 -0.0000 -21.9670 25.3351 11.2613 -0.0000 0.0000 0.0000 9.9266 4.6674 41.1675 -98.0706 59.7524 -66.9835 0.0000 -0.0000 -30.3542 -0.7942 18.0466 -0.2461 7.1250 -0.0000 -0.0000 17.7344 -12.5333 14.1757
0.00 0.00 0.00 -179.5810 5.7172 -170.8780 0.0000 0.0000 0.0000 -8.5138 24.9273 -37.1879 6.8165 15.1754 48.1769 -1.5192 21.2321 -6.6098 1.9373 8.7343 24.9677 0.0000 0.0000 0.0000 1.5985 5.8141 -25.1113 -3.5821 -11.5825 34.2705 0.6397 -20.7476 8.8089 -0.0004 -0.1362 0.3743 -0.8025 -2.4163 2.7930 1.2919 -2.9981 -5.4933 2.0548 -1.3001 -7.1822 -10.8647 -15.1027 -11.1380 14.8833 -20.7459 10.9236 4.0371 -9.2309 7.9248 -0.0000 0.0000 0.0000 6.2721 -6.3575 48.5193 140.6626 -47.6724 -102.0522 -0.0000 0.0000 -21.9178 0.0599 -6.5396 -0.0068 -7.1250 0.0000 -0.0000 -19.4057 23.4601 10.6807 -0.0000 0.0000 0.0000 8.5225 4.4921 40.4356 -80.0355 59.6215 -51.3815 0.0000 -0.0000 -20.1875 -5.4205 20.6031 -1.9124 7.1250 -0.0000 -0.0000 14.7103 -9.8147 12.4148
0.00 0.00 0.00 -179.1360 5.0301 -171.9110 0.0000 0.0000 0.0000 -8.9167 29.6869 -44.1521 13.1442 18.8336 69.5728 -0.6501 14.1125 -4.9327 1.3348 7.3158 20.6543 0.0000 0.0000 0.0000 6.2136 3.6213 -23.9203 -3.6172 -11.6328 34.4449 1.0716 -19.9182 1.8386 -0.1474 2.4741 -6.8180 -0.9383 -2.7677 4.1936 1.3648 -3.5062 -5.4858 2.3310 -1.5365 -7.9591 -11.2162 -15.4832 -10.0220 14.9877 -21.2636 10.4309 4.1116 -9.5644 7.6906 -0.0000 -0.0000 0.0000 6.3944 -5.3741 50.4151 139.3448 -48.4533 -101.0719 -0.0000 0.0000 -19.7158 2.4316 -7.7391 -0.3276 -7.1250 0.0000 -0.0000 -17.5839 22.3170 10.0601 -0.0000 -0.0000 0.0000 7.5999 5.3740 39.3346 -61.8745 56.7891 -35.9052 0.0000 -0.0000 -5.2260 -12.0353 23.3623 -4.8325 7.1250 -0.0000 -0.0000 10.6044 -6.4878 9.5066
